<svg width="326" height="281" viewBox="0 0 326 281" fill="none" xmlns="http://www.w3.org/2000/svg">
<g clip-path="url(#clip0_163_309)">
<path d="M169.022 235.319L178.407 232.55L175.669 241.975L178.407 251.374L169.022 248.631L159.609 251.374L162.374 241.975L159.609 232.55L169.022 235.319Z" fill="#0D0C22" stroke="white" stroke-miterlimit="10"/>
</g>
<g clip-path="url(#clip1_163_309)">
<path d="M67.8393 187.855L84.9288 197.179L67.8393 206.578L58.4906 223.653L49.1419 206.578L32.0524 197.179L49.1419 187.855L58.4906 170.705L67.8393 187.855Z" fill="#0D0C22" stroke="white" stroke-miterlimit="10"/>
</g>
<path d="M306.338 211.571C305.345 213.374 303.484 214.7 300.752 215.53C298.019 216.36 294.457 216.677 290.148 216.491C281.532 216.119 270.042 213.739 256.468 209.579C229.329 201.261 193.964 185.859 156.814 165.34C119.665 144.821 87.7897 123.084 66.2864 104.535C55.5316 95.2574 47.3919 86.795 42.4814 79.696C40.0256 76.1457 38.3939 72.9598 37.6368 70.2015C36.8803 67.4458 37.0077 65.1623 38.0011 63.3589C38.9944 61.5556 40.8554 60.2296 43.5867 59.4002C46.3204 58.5702 49.882 58.2526 54.191 58.4387C62.807 58.8109 74.2972 61.1908 87.8709 65.3509C115.01 73.6686 150.375 89.0705 187.525 109.589C224.674 130.109 256.549 151.846 278.053 170.395C288.807 179.672 296.947 188.135 301.858 195.234C304.313 198.784 305.945 201.97 306.702 204.728C307.459 207.484 307.331 209.768 306.338 211.571Z" stroke="#5A5F68"/>
<path d="M295.354 231.51C294.36 233.313 292.499 234.639 289.768 235.469C287.034 236.299 283.473 236.616 279.164 236.43C270.548 236.058 259.057 233.678 245.484 229.518C218.344 221.2 182.98 205.798 145.83 185.279C108.68 164.76 76.8054 143.023 55.302 124.474C44.5472 115.197 36.4076 106.734 31.497 99.6351C29.0412 96.0848 27.4095 92.8989 26.6524 90.1406C25.896 87.3849 26.0233 85.1014 27.0167 83.298C28.0101 81.4947 29.871 80.1687 32.6023 79.3393C35.3361 78.5092 38.8976 78.1917 43.2066 78.3778C51.8226 78.75 63.3128 81.1299 76.8865 85.29C104.026 93.6077 139.391 109.01 176.54 129.529C213.69 150.048 245.565 171.785 267.068 190.334C277.823 199.611 285.963 208.074 290.873 215.173C293.329 218.723 294.961 221.909 295.718 224.667C296.474 227.423 296.347 229.707 295.354 231.51Z" stroke="#5A5F68"/>
<path d="M284.371 251.449C283.378 253.252 281.517 254.578 278.785 255.407C276.052 256.237 272.49 256.555 268.181 256.369C259.565 255.997 248.075 253.617 234.501 249.457C207.362 241.139 171.997 225.737 134.847 205.218C97.6977 184.699 65.8227 162.962 44.3194 144.413C33.5645 135.135 25.4249 126.673 20.5144 119.574C18.0585 116.024 16.4269 112.838 15.6698 110.079C14.9133 107.324 15.0407 105.04 16.034 103.237C17.0274 101.433 18.8883 100.107 21.6196 99.2781C24.3534 98.448 27.9149 98.1304 32.2239 98.3165C40.8399 98.6887 52.3301 101.069 65.9038 105.229C93.0432 113.546 128.408 128.948 165.558 149.467C202.707 169.986 234.582 191.723 256.086 210.273C266.84 219.55 274.98 228.013 279.891 235.112C282.346 238.662 283.978 241.848 284.735 244.606C285.492 247.362 285.364 249.645 284.371 251.449Z" stroke="#5A5F68"/>
<ellipse cx="71.3646" cy="56.8434" rx="8.76378" ry="8.35808" fill="white"/>
<ellipse cx="228.285" cy="236.124" rx="5.42519" ry="5.43275" fill="white"/>
<ellipse cx="44.2373" cy="35.1122" rx="12.5197" ry="12.5371" fill="#0D0C22"/>
<path d="M166.127 208.559C162.704 209.73 158.793 207.409 157.432 203.384L136.259 141.262L148.631 137.024L169.826 199.231C171.186 203.213 169.528 207.388 166.127 208.559Z" fill="#0D0C22"/>
<path d="M164.279 209.326C163.28 209.326 162.259 209.091 161.281 208.601C159.304 207.622 157.731 205.79 156.966 203.533L135.792 141.411C135.707 141.177 135.835 140.9 136.09 140.815L148.462 136.577C148.59 136.534 148.718 136.534 148.824 136.598C148.93 136.662 149.015 136.747 149.058 136.875L170.252 199.082C171.677 203.299 169.891 207.75 166.256 209.006C165.639 209.219 164.959 209.326 164.279 209.326ZM136.855 141.56L157.88 203.235C158.56 205.258 159.963 206.919 161.706 207.771C163.109 208.452 164.619 208.58 165.979 208.112C169.126 207.026 170.656 203.107 169.381 199.38L148.335 137.62L136.855 141.56Z" fill="#0D0C22"/>
<path d="M146.442 83.3995L106.411 112.001L90.8277 128.207L84.7051 139.047L84.6838 139.132C83.472 141.007 84.1736 145.33 86.4483 149.738C88.6806 154.083 91.8269 157.107 94.0379 157.277L93.9741 157.32L105.731 158.597L127.734 155.084L174.441 138.344L232.5 148.311L232.904 148.333C218.32 145.607 198.634 126.078 184.326 98.4561C170.04 70.8558 165.49 43.575 171.762 30.1156H171.741L146.761 82.718L146.442 83.3995Z" fill="white"/>
<path d="M242.517 147.139C256.864 139.671 254.094 105.824 236.332 71.5392C218.569 37.2549 192.54 15.516 178.193 22.9841C163.847 30.4521 166.616 64.2992 184.379 98.5836C202.141 132.868 228.171 154.607 242.517 147.139Z" fill="white"/>
<path d="M236.243 149.078C229.993 149.078 222.467 145.586 214.368 138.792C203.334 129.549 192.513 115.302 183.903 98.648C170.871 73.4329 165.492 47.579 170.212 32.7779C171.785 27.8371 174.421 24.3871 178.014 22.5343C185.157 18.8713 195.213 21.9806 206.353 31.3084C217.386 40.5511 228.207 54.7985 236.817 71.4524C249.871 96.6674 255.249 122.521 250.508 137.323C248.935 142.263 246.299 145.713 242.706 147.566C240.772 148.588 238.603 149.078 236.243 149.078ZM184.519 21.9806C182.33 21.9806 180.289 22.4278 178.461 23.3861C175.08 25.1112 172.614 28.3908 171.126 33.0973C166.47 47.6855 171.828 73.2626 184.753 98.2647C202.356 132.275 228.165 154.04 242.302 146.778C245.682 145.053 248.149 141.773 249.637 137.067C254.292 122.479 248.935 96.9017 236.009 71.8996C220.682 42.2974 199.167 21.9806 184.519 21.9806Z" fill="#0D0C22"/>
<path d="M236.242 149.078C229.992 149.078 222.466 145.585 214.366 138.791C203.332 129.549 192.511 115.301 183.901 98.6474C170.87 73.4323 165.491 47.5783 170.21 32.7772C171.784 27.8364 174.42 24.3864 178.013 22.5336C182.796 20.0632 189.046 20.6808 196.083 24.3012C202.822 27.7725 210.114 33.9272 217.215 42.0838C217.385 42.2755 217.364 42.5736 217.172 42.744C216.981 42.9144 216.683 42.8931 216.513 42.7014C202.099 26.1327 187.516 18.7215 178.459 23.3855C175.079 25.1105 172.613 28.3901 171.125 33.0967C166.469 47.6848 171.826 73.2619 184.752 98.264C200.059 127.845 221.594 148.183 236.221 148.183C238.41 148.183 240.451 147.736 242.279 146.777C245.66 145.052 248.126 141.773 249.614 137.066C254.27 122.478 248.912 96.901 235.987 71.8989C232.139 64.4452 227.802 57.4386 223.146 51.0709C222.997 50.858 223.04 50.5598 223.252 50.4107C223.465 50.2617 223.763 50.3043 223.911 50.5172C228.61 56.9275 232.947 63.9766 236.837 71.473C249.869 96.6668 255.248 122.521 250.507 137.322C248.934 142.263 246.298 145.713 242.705 147.565C240.77 148.588 238.602 149.078 236.242 149.078Z" fill="#0D0C22"/>
<path d="M209.988 103.494C213.312 101.764 212.674 93.9296 208.563 85.9954C204.452 78.0611 198.426 73.0316 195.102 74.7617C191.778 76.4918 192.417 84.3263 196.527 92.2605C200.638 100.195 206.665 105.224 209.988 103.494Z" fill="white"/>
<path d="M208.54 104.313C204.883 104.313 199.781 99.5849 196.104 92.4506C193.043 86.5301 191.788 80.4393 192.915 76.9254C193.319 75.6902 193.978 74.8171 194.892 74.3485C198.506 72.4957 204.692 77.543 208.986 85.8273C212.048 91.7478 213.302 97.8386 212.175 101.353C211.771 102.588 211.112 103.461 210.198 103.929C209.688 104.185 209.135 104.313 208.54 104.313ZM196.55 74.8809C196.104 74.8809 195.679 74.9661 195.317 75.1578C194.616 75.5198 194.106 76.2013 193.787 77.2023C192.745 80.4819 193.957 86.3172 196.912 92.0246C200.823 99.5849 206.712 104.675 209.752 103.099C210.453 102.737 210.963 102.055 211.282 101.054C212.324 97.7534 211.091 91.9395 208.157 86.232C204.713 79.6088 199.781 74.8809 196.55 74.8809Z" fill="white"/>
<path d="M233.011 141.134C227.526 141.134 220.936 138.067 213.835 132.125C204.183 124.033 194.702 111.553 187.176 96.9862C175.76 74.923 171.061 52.2848 175.186 39.3152C176.568 34.9707 178.885 31.9466 182.052 30.3068C189.323 26.5799 200.017 30.8818 211.412 42.105C211.603 42.2967 211.603 42.5736 211.412 42.7652C211.22 42.9569 210.944 42.9569 210.753 42.7652C199.655 31.8401 189.344 27.5808 182.478 31.1373C179.544 32.6494 177.397 35.4818 176.079 39.592C172.018 52.3274 176.695 74.6887 188.005 96.5602C201.377 122.436 220.192 140.197 232.99 140.197C234.903 140.197 236.668 139.792 238.283 138.983C241.217 137.471 243.364 134.638 244.682 130.528C248.743 117.793 244.066 95.4315 232.756 73.56C229.333 66.9581 225.506 60.7608 221.382 55.1598C221.233 54.9468 221.276 54.6487 221.488 54.4996C221.701 54.3505 221.999 54.3931 222.148 54.6061C226.314 60.271 230.162 66.4895 233.606 73.1341C245.023 95.1973 249.721 117.835 245.597 130.805C244.215 135.15 241.897 138.174 238.73 139.813C236.987 140.687 235.073 141.134 233.011 141.134Z" fill="#0D0C22"/>
<path d="M105.754 159.045C105.732 159.045 105.711 159.045 105.711 159.045L93.9547 157.767C93.8909 157.767 93.8271 157.746 93.7633 157.703C91.3398 157.32 88.2784 154.253 86.0462 149.951C83.6652 145.415 82.9636 140.985 84.2604 138.898L84.2817 138.835L90.4044 127.973C90.4256 127.931 90.4469 127.909 90.4681 127.888L106.051 111.681C106.072 111.66 106.094 111.639 106.115 111.618L146.04 83.0803L171.296 29.9029C171.36 29.7964 171.445 29.7112 171.572 29.6686C171.7 29.626 171.827 29.626 171.934 29.6899C172.168 29.7964 172.274 30.0732 172.168 30.3075C165.769 44.0437 170.828 71.3459 184.732 98.2221C198.657 125.141 218.066 145.074 233.012 147.822C233.246 147.864 233.416 148.077 233.394 148.333C233.373 148.567 233.161 148.737 232.927 148.759L232.523 148.737C232.502 148.737 232.48 148.737 232.459 148.737L174.506 138.792L127.906 155.488C127.885 155.488 127.842 155.51 127.821 155.51L105.817 159.024C105.796 159.045 105.775 159.045 105.754 159.045ZM94.2948 156.873L105.754 158.108L127.651 154.594L174.336 137.876C174.421 137.855 174.485 137.834 174.57 137.855L226.74 146.799C212.645 140.602 196.169 122.308 183.945 98.6693C171.806 75.2006 166.385 51.3698 169.361 36.3131L146.869 83.5914C146.827 83.6553 146.784 83.7192 146.72 83.7618L106.732 112.363L91.2122 128.484L85.0895 139.346C85.0895 139.367 85.0683 139.388 85.0683 139.388C83.9628 141.113 84.7069 145.373 86.8541 149.525C88.9587 153.593 91.9988 156.66 94.0822 156.809C94.1673 156.809 94.231 156.83 94.2948 156.873Z" fill="#0D0C22"/>
<path d="M146.505 83.2292L171.74 30.0944H171.761C165.49 43.5538 170.061 70.8346 184.326 98.4349C198.633 126.078 218.319 145.607 232.946 148.29L232.542 148.269L174.568 138.323L173.228 138.089C166.489 136.896 157.496 128.122 151.055 115.6C144.443 102.758 143.274 89.9589 146.208 83.8681L146.505 83.2292Z" fill="white"/>
<path d="M232.947 148.759C232.926 148.759 232.947 148.759 232.947 148.759L232.522 148.737C232.501 148.737 232.479 148.737 232.458 148.737L174.484 138.792L173.145 138.558C166.023 137.301 156.988 128.165 150.631 115.834C143.424 101.821 143.063 89.3412 145.784 83.6764L146.103 83.0375L171.338 29.924C171.401 29.8175 171.486 29.7323 171.614 29.6897C171.742 29.6471 171.869 29.6471 171.975 29.711C172.209 29.8175 172.316 30.0943 172.209 30.3286C165.81 44.0648 170.87 71.367 184.774 98.2432C198.698 125.162 218.108 145.096 233.053 147.843C233.287 147.885 233.457 148.098 233.436 148.354C233.372 148.567 233.181 148.759 232.947 148.759ZM169.318 36.3129L146.932 83.4421L146.613 84.081C143.913 89.7033 144.7 102.268 151.46 115.387C157.689 127.483 166.469 136.428 173.315 137.62L174.654 137.855L226.718 146.799C212.623 140.602 196.147 122.308 183.923 98.6691C171.784 75.2004 166.363 51.3695 169.318 36.3129Z" fill="#292E35"/>
<path d="M105.114 158.981C105.093 158.981 105.071 158.981 105.071 158.981L93.932 157.788C93.8682 157.788 93.8045 157.767 93.7407 157.724C91.3172 157.341 88.256 154.274 86.0239 149.973C83.6642 145.415 82.9627 140.985 84.2595 138.898L84.2807 138.834L90.4031 127.973C90.5307 127.739 90.807 127.675 91.0409 127.803C91.2747 127.931 91.3385 128.208 91.211 128.442L85.0886 139.346C85.0886 139.367 85.0673 139.388 85.0673 139.388C83.9619 141.113 84.7059 145.373 86.853 149.525C88.9576 153.593 91.9975 156.66 94.0808 156.809C94.1446 156.809 94.2296 156.83 94.2722 156.873L105.156 158.044C105.412 158.065 105.603 158.299 105.56 158.555C105.539 158.789 105.348 158.981 105.114 158.981Z" fill="#0D0C22"/>
<path d="M105.857 158.512C102.243 158.257 97.1834 153.124 93.5057 146.033C89.6155 138.515 88.7014 130.742 91.0823 127.973L84.7261 139.047L84.6835 139.133C83.4718 141.007 84.1733 145.33 86.448 149.738C88.6801 154.083 91.8263 157.107 94.0372 157.277L93.9734 157.32L105.857 158.512Z" fill="white"/>
<path d="M105.858 158.981C105.837 158.981 105.837 158.981 105.815 158.981C105.73 158.981 105.624 158.959 105.539 158.959L93.932 157.788C93.8682 157.788 93.8045 157.767 93.7407 157.724C91.3172 157.341 88.256 154.274 86.0239 149.972C83.6642 145.415 82.9627 140.985 84.2595 138.898L84.2807 138.834L89.8717 129.08C90.0843 128.527 90.3606 128.037 90.7008 127.632C90.8496 127.441 91.1259 127.419 91.3172 127.547C91.5086 127.696 91.5723 127.952 91.4448 128.165L90.6582 129.506C89.404 132.892 90.637 139.537 93.8682 145.756C97.3759 152.549 102.159 157.511 105.582 157.958L105.837 157.98C106.092 158.001 106.283 158.235 106.262 158.491C106.283 158.789 106.092 158.981 105.858 158.981ZM94.2722 156.872L102.393 157.703C99.2679 155.701 95.824 151.57 93.0817 146.245C90.4244 141.113 89.1064 135.789 89.319 131.955L85.0886 139.345C85.0886 139.367 85.0673 139.388 85.0673 139.388C83.9619 141.113 84.7059 145.372 86.853 149.525C88.9576 153.593 91.9975 156.659 94.0808 156.808C94.1446 156.808 94.2296 156.83 94.2722 156.872Z" fill="#0D0C22"/>
<path d="M126.947 155.169L127.882 154.977C122.823 156.042 114.83 148.375 109.196 137.492C103.435 126.376 102.351 115.28 106.432 112.001L105.901 112.533L91.1265 127.909C88.703 130.635 89.5958 138.451 93.5074 146.011C97.2701 153.295 102.606 158.491 106.241 158.47L126.947 155.169Z" fill="#0D0C22"/>
<path d="M106.22 158.959C102.351 158.959 96.9726 153.741 93.0824 146.245C89.1283 138.578 88.1292 130.571 90.7652 127.611L105.263 112.533C105.518 112.192 105.816 111.894 106.135 111.638C106.326 111.489 106.603 111.51 106.773 111.681C106.943 111.872 106.943 112.149 106.773 112.32L105.944 113.193C102.989 117.154 104.456 127.291 109.621 137.279C115.191 148.055 122.972 155.445 127.733 154.551L127.797 154.529C128.052 154.487 128.286 154.636 128.35 154.891C128.392 155.147 128.244 155.381 127.989 155.445C127.967 155.445 127.946 155.445 127.925 155.466L127.053 155.637H127.032L106.326 158.938C106.284 158.938 106.241 158.959 106.22 158.959ZM104.03 115.173L91.4667 128.249C89.1283 130.89 90.1912 138.6 93.9327 145.819C97.5891 152.89 102.755 158.001 106.22 158.022L124.502 155.104C119.57 153.358 113.49 146.777 108.792 137.726C104.328 129.101 102.606 120.327 104.03 115.173Z" fill="#0D0C22"/>
<path d="M195.105 74.7529C191.767 76.4566 192.256 84.3576 196.508 92.2373C203.629 105.42 209.305 103.865 209.964 103.631C209.986 103.631 209.986 103.652 209.964 103.652L197.741 113.513C194.148 108.465 190.726 102.843 187.579 96.7735C184.582 90.9595 182.052 85.1669 180.054 79.5446L195.105 74.7529Z" fill="#0D0C22"/>
<path d="M197.741 113.981C197.72 113.981 197.699 113.981 197.678 113.981C197.55 113.959 197.444 113.896 197.359 113.789C193.681 108.614 190.258 102.949 187.176 97.0074C184.221 91.3 181.67 85.486 179.629 79.736C179.587 79.6082 179.587 79.4804 179.65 79.3739C179.714 79.2674 179.799 79.1823 179.927 79.1397L194.978 74.3479C195.212 74.2841 195.467 74.3905 195.552 74.6248C195.637 74.8591 195.552 75.1146 195.339 75.2211C194.616 75.5831 194.085 76.3072 193.766 77.372C192.724 80.7156 194 86.636 196.955 92.0666C203.906 104.93 209.263 103.46 209.837 103.247C210.05 103.162 210.305 103.269 210.411 103.46C210.518 103.652 210.475 103.929 210.305 104.078L198.039 113.874C197.954 113.938 197.848 113.981 197.741 113.981ZM180.671 79.8424C182.69 85.4008 185.156 91.0231 188.005 96.5602C190.981 102.31 194.297 107.783 197.848 112.831L208.456 104.27C206.032 104.163 201.462 102.353 196.104 92.45C193.001 86.7212 191.725 80.673 192.852 77.0313C193.001 76.5628 193.171 76.1581 193.383 75.7748L180.671 79.8424Z" fill="#0D0C22"/>
<path d="M257.987 44.3715C267.704 39.2566 271.464 27.2505 266.384 17.5551C261.305 7.85967 249.31 4.14646 239.593 9.26138C229.876 14.3763 226.116 26.3824 231.195 36.0778C236.275 45.7732 248.27 49.4865 257.987 44.3715Z" fill="#0D0C22"/>
<path d="M239.745 22.4268C240.68 21.149 242.062 20.3611 243.635 20.1907C244.826 20.0629 245.931 20.3185 246.973 20.9574C247.504 21.2768 247.972 21.6814 248.418 22.1713C248.737 21.5963 249.12 21.0851 249.566 20.6592C250.438 19.8073 251.479 19.3175 252.649 19.1897C254.222 19.0194 255.752 19.4879 256.943 20.5314C258.112 21.5537 258.856 23.0444 259.047 24.7268C259.239 26.4519 258.771 28.113 257.581 29.9445C256.518 31.5843 254.902 33.288 253.031 35.2899C252.394 35.9714 251.671 36.7381 250.927 37.5473C250.735 37.7603 250.459 37.9094 250.161 37.9307C249.864 37.9733 249.587 37.8881 249.332 37.7177C248.418 37.0788 247.547 36.4825 246.781 35.9714C244.528 34.4381 242.572 33.1177 241.169 31.7547C239.596 30.2426 238.788 28.7093 238.597 26.9843C238.427 25.3018 238.831 23.6833 239.745 22.4268Z" fill="white"/>
<path d="M313.121 45.46C320.233 38.3305 320.233 26.7713 313.12 19.6419C306.008 12.5124 294.476 12.5124 287.363 19.6419C280.251 26.7713 280.251 38.3305 287.363 45.46C294.476 52.5895 306.008 52.5895 313.121 45.46Z" fill="white"/>
<path d="M300.246 51.263C289.957 51.263 281.56 42.8722 281.56 32.5433C281.56 22.2358 289.936 13.8237 300.246 13.8237C310.556 13.8237 318.932 22.2145 318.932 32.5433C318.932 42.8509 310.556 51.263 300.246 51.263ZM300.246 14.7607C290.467 14.7607 282.495 22.7256 282.495 32.5433C282.495 42.3397 290.446 50.3259 300.246 50.3259C310.025 50.3259 317.997 42.361 317.997 32.5433C317.997 22.7469 310.046 14.7607 300.246 14.7607Z" fill="white"/>
<path d="M304.541 34.1565C303.631 34.1565 302.835 34.5934 302.304 35.2772L296.824 33.1308C296.824 33.0548 296.843 32.9979 296.843 32.9219C296.843 32.7889 296.824 32.656 296.805 32.523L302.417 29.9207C302.929 30.5096 303.688 30.8895 304.541 30.9084C306.096 30.9084 307.385 29.6358 307.385 28.0592C307.385 26.4827 306.115 25.191 304.541 25.191C302.986 25.191 301.697 26.4637 301.697 28.0402C301.697 28.1732 301.716 28.3062 301.735 28.4391L296.122 31.0414C295.611 30.4526 294.852 30.0727 293.999 30.0537C292.444 30.0537 291.155 31.3263 291.155 32.9029C291.155 34.4795 292.425 35.7711 293.999 35.7711C294.909 35.7711 295.705 35.3342 296.236 34.6504L301.716 36.7968C301.716 36.8728 301.697 36.9298 301.697 37.0058C301.697 38.5823 302.967 39.874 304.541 39.874C306.096 39.874 307.385 38.6013 307.385 37.0247C307.366 35.4482 306.096 34.1755 304.541 34.1565Z" fill="#0D0C22"/>
<path d="M305.409 103.305C313.75 97.5017 315.847 86.0597 310.092 77.7486C304.337 69.4374 292.909 67.4046 284.568 73.208C276.227 79.0114 274.13 90.4535 279.885 98.7646C285.64 107.076 297.068 109.109 305.409 103.305Z" fill="#0D0C22"/>
<path d="M290.686 96.3338L288.127 82.4389C288.005 81.7268 288.655 81.1369 289.345 81.3199L304.475 85.6125C305.246 85.8363 305.429 86.8332 304.799 87.3214L292.209 96.9238C291.661 97.3714 290.828 97.0662 290.686 96.3338Z" fill="white"/>
<path d="M294.807 162.884C305.109 157.858 309.421 145.466 304.439 135.207C299.456 124.948 287.066 120.707 276.765 125.734C266.463 130.761 262.151 143.152 267.133 153.411C272.116 163.67 284.506 167.911 294.807 162.884Z" fill="white"/>
<path d="M285.688 165.476C283.477 165.476 281.223 165.135 279.034 164.389C273.677 162.6 269.34 158.852 266.832 153.784C264.323 148.736 263.94 143.008 265.747 137.641C269.489 126.588 281.521 120.561 292.597 124.245C297.954 126.034 302.291 129.783 304.799 134.851C307.307 139.898 307.69 145.627 305.883 150.994C302.864 159.853 294.552 165.476 285.688 165.476ZM285.9 124.118C277.418 124.118 269.468 129.484 266.598 137.96C264.876 143.093 265.237 148.566 267.639 153.379C270.042 158.213 274.187 161.813 279.31 163.516C289.897 167.03 301.398 161.28 304.969 150.717C306.691 145.585 306.33 140.111 303.927 135.298C301.525 130.464 297.38 126.865 292.257 125.161C290.152 124.437 288.005 124.118 285.9 124.118Z" fill="#0D0C22"/>
<path d="M295.492 142.145C295.299 146.336 287.343 156.133 285.446 158.427C285.252 158.668 284.846 158.651 284.672 158.392C283.471 156.668 279.503 150.872 277.432 146.181C276.6 144.318 276.077 142.628 276.135 141.437C276.348 136.677 280.858 132.969 286.201 133.158C291.543 133.383 295.705 137.384 295.492 142.145Z" fill="#0D0C22"/>
<path d="M288.944 144.595C290.675 143.053 290.675 140.552 288.944 139.009C287.213 137.467 284.406 137.467 282.675 139.009C280.944 140.552 280.944 143.053 282.675 144.595C284.406 146.138 287.213 146.138 288.944 144.595Z" fill="white"/>
<defs>
<clipPath id="clip0_163_309">
<rect width="19.1968" height="19.2236" fill="white" transform="translate(159.424 232.363)"/>
</clipPath>
<clipPath id="clip1_163_309">
<rect width="38.2083" height="38.2083" fill="white" transform="matrix(0.70663 0.707583 -0.70663 0.707583 58.4906 170.181)"/>
</clipPath>
</defs>
</svg>
