<?xml version="1.0" standalone="no"?>
<!DOCTYPE svg PUBLIC "-//W3C//DTD SVG 20010904//EN"
 "http://www.w3.org/TR/2001/REC-SVG-20010904/DTD/svg10.dtd">
<svg version="1.0" xmlns="http://www.w3.org/2000/svg"
 width="300.000000pt" height="300.000000pt" viewBox="0 0 300.000000 300.000000"
 preserveAspectRatio="xMidYMid meet">
<metadata>
Created by potrace 1.10, written by Peter Selinger 2001-2011
</metadata>
<g transform="translate(0.000000,300.000000) scale(0.100000,-0.100000)"
fill="#000000" stroke="none">
<path d="M1365 2914 c-193 -23 -319 -56 -461 -124 -262 -123 -477 -315 -619
-554 -185 -309 -242 -642 -176 -1009 40 -220 146 -445 294 -622 163 -195 367
-339 607 -428 140 -52 272 -77 440 -84 236 -9 441 35 665 142 594 283 914 967
754 1610 -11 44 -41 132 -66 195 -158 398 -511 714 -925 829 -138 38 -382 60
-513 45z m360 -47 c11 -2 38 -8 60 -12 53 -9 189 -52 245 -77 79 -35 165 -79
181 -94 8 -8 19 -14 24 -14 16 0 156 -111 218 -173 100 -101 130 -137 193
-232 50 -76 134 -239 134 -261 0 -3 7 -20 15 -37 16 -36 28 -82 56 -217 16
-79 19 -124 16 -270 -2 -96 -7 -190 -10 -208 -16 -88 -76 -280 -106 -340 -4
-9 -24 -47 -42 -84 -70 -139 -229 -326 -369 -434 -243 -188 -529 -284 -840
-284 -146 0 -170 2 -270 22 -30 6 -60 11 -67 12 -7 1 -16 5 -19 9 -4 4 -15 7
-25 7 -26 0 -208 71 -261 102 -27 15 -48 24 -48 20 0 -4 -4 -2 -8 3 -4 6 -41
33 -82 60 -205 137 -349 304 -462 535 -106 217 -133 339 -133 605 0 109 5 208
13 250 17 88 43 187 52 200 4 6 13 28 20 50 15 47 95 202 119 229 9 10 16 21
15 25 -6 34 192 252 309 339 49 37 92 67 96 67 3 0 20 10 37 22 45 32 209 108
285 133 67 21 129 35 229 50 54 8 386 6 425 -3z"/>
<path d="M1375 2850 c-316 -27 -631 -179 -851 -410 -68 -71 -96 -107 -154
-195 -33 -49 -64 -96 -70 -102 -6 -7 -8 -13 -5 -13 3 0 -5 -21 -18 -47 -52
-103 -101 -264 -122 -400 -4 -23 -6 -106 -7 -185 0 -205 37 -369 123 -556 22
-46 39 -88 39 -92 0 -5 4 -10 8 -12 5 -1 15 -15 23 -30 65 -122 266 -334 407
-427 50 -33 92 -59 92 -57 0 3 27 -11 61 -30 33 -18 64 -34 69 -34 4 0 28 -9
52 -20 106 -47 309 -81 478 -81 156 0 412 41 445 72 5 5 15 9 22 9 6 0 43 14
80 32 342 160 610 455 727 802 52 153 70 289 62 476 -7 181 -8 194 -31 280
-64 250 -176 444 -359 625 -97 95 -232 205 -254 205 -4 0 -18 9 -32 20 -42 33
-299 128 -405 149 -120 24 -257 32 -380 21z m337 -49 c356 -61 671 -264 869
-559 123 -183 184 -340 213 -549 21 -147 20 -240 -4 -401 -23 -156 -67 -283
-145 -422 -75 -134 -111 -181 -222 -293 -206 -207 -463 -336 -746 -372 -150
-19 -230 -19 -370 1 -209 29 -366 90 -549 213 -373 250 -594 686 -575 1136 18
433 227 803 593 1050 45 30 92 59 105 64 13 5 53 22 89 39 113 52 245 88 385
105 89 11 253 5 357 -12z"/>
<path d="M1281 2754 c-297 -50 -579 -217 -771 -457 -101 -126 -166 -242 -215
-389 -167 -501 -2 -1068 406 -1389 151 -120 303 -196 485 -245 134 -36 372
-45 520 -20 257 44 498 169 684 356 187 186 312 427 356 685 25 147 16 384
-20 519 -96 358 -338 661 -661 823 -92 47 -259 101 -365 118 -116 18 -305 18
-419 -1z m489 -44 c179 -44 267 -81 390 -163 145 -96 258 -205 353 -338 85
-120 174 -333 202 -483 l7 -36 -169 0 -169 0 -28 95 c-78 260 -303 489 -571
580 -184 62 -430 60 -599 -6 -120 -48 -230 -115 -320 -198 -96 -90 -219 -298
-247 -419 l-12 -52 -170 0 -169 0 7 33 c44 201 124 381 234 526 82 109 134
161 241 242 155 118 369 208 565 239 101 15 357 4 455 -20z m-178 -340 c117
-12 218 -44 323 -103 117 -66 152 -94 231 -184 89 -103 137 -184 171 -295 35
-109 54 -128 132 -128 33 0 62 -4 65 -9 3 -5 -10 -25 -28 -43 -38 -38 -52 -75
-42 -113 7 -27 93 -118 104 -111 4 2 18 -1 31 -8 21 -11 11 -14 -80 -19 -57
-3 -111 -8 -120 -12 -21 -8 -43 -52 -65 -130 -32 -115 -102 -224 -215 -335
-106 -105 -196 -159 -339 -203 -134 -41 -231 -51 -351 -37 -211 24 -349 86
-510 230 -60 53 -88 90 -192 255 -28 43 -37 50 -68 53 -27 2 -45 -5 -82 -33
-26 -20 -58 -52 -71 -72 -24 -35 -25 -36 -31 -12 -3 14 -5 56 -3 94 l3 70 30
-1 c17 -1 51 -5 78 -9 39 -6 51 -5 67 10 27 24 26 73 -2 102 -20 21 -29 23
-130 23 -114 0 -127 7 -63 35 19 7 44 23 56 34 77 72 78 149 4 200 -19 13 -32
27 -29 32 3 5 36 9 73 9 81 0 90 7 122 100 28 83 72 172 115 233 19 26 34 50
34 53 0 3 19 26 43 51 128 138 338 249 512 269 22 3 41 6 42 8 7 7 96 5 185
-4z m-1247 -722 c3 -3 -13 -23 -35 -45 l-40 -41 0 43 c0 25 5 45 13 48 15 6
54 3 62 -5z m2378 -21 c5 -15 6 -35 2 -45 -6 -15 -10 -13 -34 14 -15 17 -35
34 -45 37 -29 11 -7 28 32 25 29 -2 37 -8 45 -31z m-2333 -29 c0 -29 -38 -68
-67 -68 -32 0 -29 25 6 61 35 35 61 38 61 7z m65 12 c14 -22 -36 -100 -79
-125 -47 -27 -76 -32 -77 -12 0 6 -2 20 -4 30 -2 13 4 17 26 17 37 0 79 40 79
75 0 20 5 25 24 25 14 0 28 -5 31 -10z m2188 -7 c41 -21 59 -71 48 -135 -2
-15 -36 -8 -75 16 -23 14 -49 42 -63 67 -26 49 -32 31 -7 -20 18 -35 47 -57
100 -76 l36 -12 -27 -21 c-42 -33 -113 -10 -159 51 -30 39 -32 58 -10 93 34
51 98 66 157 37z m-2123 -80 c0 -36 -65 -98 -119 -113 -42 -11 -45 -10 -70 14
-23 23 -23 26 -7 26 11 0 38 11 61 24 37 22 63 58 80 111 6 19 8 18 31 -8 13
-15 24 -40 24 -54z m-201 -130 l35 -31 -27 -7 c-45 -12 -57 -1 -56 52 0 26 3
41 6 33 3 -8 22 -29 42 -47z m2405 12 c-4 -46 -9 -53 -36 -50 -13 1 -34 3 -48
4 l-25 2 24 10 c14 5 36 23 49 39 32 39 41 38 36 -5z m-2111 -107 c2 -13 8
-31 12 -40 6 -15 2 -18 -21 -18 -16 0 -51 7 -78 15 -27 8 -62 15 -78 15 l-28
0 0 -116 c0 -124 14 -202 38 -211 18 -7 45 25 37 45 -7 20 25 91 44 97 10 3
27 19 39 35 16 21 31 30 51 30 25 0 33 -8 56 -52 15 -29 43 -74 61 -101 19
-26 34 -51 34 -55 0 -11 93 -100 161 -154 287 -230 715 -251 1036 -52 173 107
316 291 376 481 l32 103 168 0 c92 0 167 -2 167 -4 0 -26 -35 -160 -59 -226
-65 -176 -161 -327 -292 -459 -238 -237 -538 -361 -874 -361 -327 0 -611 113
-851 340 -99 93 -205 233 -262 345 -32 65 -112 319 -112 359 0 3 76 6 169 6
167 0 169 0 174 -22z"/>
<path d="M1587 2577 c-9 -56 -15 -103 -13 -104 1 -2 37 -6 78 -9 71 -6 77 -5
88 16 13 25 6 70 -12 70 -7 0 -2 9 10 20 42 40 20 85 -46 95 -100 16 -87 27
-105 -88z m102 44 c19 -12 6 -41 -19 -41 -15 0 -20 7 -20 25 0 26 14 31 39 16z
m-4 -96 c0 -15 -6 -19 -24 -17 -31 3 -33 5 -25 26 9 24 49 17 49 -9z"/>
<path d="M1269 2641 c-47 -48 -37 -130 21 -164 81 -48 172 16 157 111 -9 52
-46 82 -103 82 -37 0 -51 -6 -75 -29z m109 -33 c22 -29 23 -57 3 -77 -25 -25
-44 -26 -65 -5 -19 18 -21 80 -3 87 23 10 55 7 65 -5z"/>
<path d="M988 2570 c-17 -11 -13 -28 41 -152 l20 -47 53 21 c66 27 61 23 53
47 -5 18 -8 19 -39 6 l-33 -14 -29 71 c-31 76 -39 83 -66 68z"/>
<path d="M1907 2501 l-76 -78 26 -12 c22 -10 28 -10 35 3 8 14 12 14 43 -1 24
-11 35 -24 35 -38 0 -18 33 -45 54 -45 2 0 6 43 10 96 4 53 9 101 12 108 3 7
-11 19 -29 28 l-34 16 -76 -77z m79 -36 c-4 -14 -13 -25 -21 -25 -24 0 -25 17
-3 45 24 30 34 21 24 -20z"/>
<path d="M739 2411 c-43 -43 -41 -101 5 -147 41 -41 78 -44 127 -11 44 29 61
86 37 125 -9 15 -20 28 -25 29 -4 1 -26 -13 -47 -32 -35 -29 -38 -35 -26 -49
12 -15 15 -15 37 5 l23 22 0 -21 c0 -25 -43 -57 -64 -49 -8 3 -22 18 -32 32
-14 22 -15 29 -4 50 7 14 21 25 29 25 20 0 61 27 61 41 0 5 -21 9 -46 9 -37 0
-51 -5 -75 -29z"/>
<path d="M2189 2368 c-94 -108 -90 -95 -39 -139 40 -35 46 -37 60 -23 13 14
13 17 -7 34 -28 23 -29 32 -2 56 12 10 35 36 52 57 30 38 30 39 10 58 -19 19
-20 19 -74 -43z"/>
<path d="M1410 2338 c-130 -9 -305 -74 -405 -148 -102 -77 -218 -212 -259
-304 -70 -153 -80 -199 -80 -371 -1 -113 3 -173 13 -205 24 -75 28 -78 147
-78 95 0 108 3 131 23 25 21 27 29 35 155 7 108 6 141 -6 176 -11 34 -12 51
-3 81 6 21 11 40 11 43 1 3 16 26 33 51 46 67 146 147 233 186 41 19 98 45
126 59 40 19 67 24 129 24 72 0 80 2 112 30 32 29 76 39 98 22 6 -4 24 -26 42
-48 l32 -42 -54 -51 c-39 -37 -62 -51 -83 -51 -29 0 -54 -20 -65 -51 -7 -20
18 -58 45 -68 18 -6 17 -9 -12 -40 -28 -29 -31 -37 -25 -69 4 -21 19 -62 35
-93 16 -31 33 -74 39 -95 l10 -38 -30 37 c-67 81 -104 68 -137 -46 -48 -170
-64 -265 -52 -303 7 -19 13 -41 14 -47 4 -26 28 -57 56 -73 16 -10 27 -20 25
-23 -2 -5 -143 -6 -177 -2 -8 1 -6 10 28 97 20 52 23 73 18 145 -3 51 1 114 9
162 14 76 14 78 -8 101 -23 25 -64 40 -140 51 -34 6 -43 3 -63 -18 -13 -14
-25 -40 -26 -57 -2 -23 -11 -39 -32 -54 -49 -36 -71 -64 -93 -125 -12 -32 -31
-72 -41 -89 l-19 -30 -98 2 c-54 2 -102 5 -108 7 -19 6 -54 -12 -60 -30 -18
-59 150 -257 299 -351 65 -42 150 -79 231 -102 110 -32 310 -29 433 6 87 25
223 88 230 107 2 5 9 9 16 9 14 0 77 51 135 110 185 189 271 468 225 724 -29
158 -83 275 -184 396 -59 71 -66 78 -130 127 -30 24 -59 46 -65 51 -9 8 -106
54 -150 72 -99 41 -243 59 -385 48z m305 -58 c235 -74 403 -215 505 -425 65
-135 75 -180 75 -350 0 -129 -3 -161 -23 -225 -37 -119 -135 -282 -214 -356
-41 -39 -156 -117 -217 -148 -128 -65 -334 -93 -486 -67 -206 36 -413 172
-532 349 -55 83 -59 94 -25 86 15 -4 29 -11 31 -16 13 -34 129 -171 177 -211
74 -59 186 -118 284 -148 63 -20 96 -24 210 -24 125 1 142 3 226 32 244 84
412 253 496 494 30 88 32 103 32 229 0 158 -14 220 -80 350 -58 112 -122 189
-218 261 -97 74 -132 92 -243 125 -75 23 -107 27 -213 27 -130 1 -202 -13
-305 -56 -125 -52 -274 -179 -348 -297 -105 -169 -143 -415 -91 -591 17 -56
17 -56 -10 -61 -27 -4 -45 67 -53 203 -9 157 14 262 93 425 32 65 56 97 144
184 90 90 117 112 190 147 164 78 233 93 400 88 93 -2 143 -9 195 -25z m-112
-51 c132 -19 230 -59 327 -134 95 -73 171 -163 217 -257 64 -129 78 -190 77
-343 -1 -113 -4 -140 -28 -210 -81 -239 -242 -400 -481 -481 -70 -24 -96 -27
-210 -28 -97 0 -147 4 -195 18 -106 29 -227 95 -298 161 -65 60 -158 173 -150
181 3 2 40 -1 82 -7 103 -14 111 -8 160 119 36 94 41 101 78 118 43 19 58 45
58 99 0 19 4 36 9 40 13 7 144 -23 164 -38 14 -11 14 -18 1 -67 -8 -32 -14
-101 -14 -170 0 -108 -2 -119 -30 -175 -54 -108 -44 -115 144 -112 105 1 139
5 145 16 14 22 2 41 -25 41 -13 0 -46 14 -74 31 -42 26 -48 33 -40 49 14 26
12 40 -4 40 -7 0 -16 9 -19 19 -5 20 29 176 66 305 l20 70 28 -33 c15 -18 35
-54 44 -79 22 -57 81 -177 105 -212 9 -14 22 -52 29 -85 21 -97 45 -142 86
-162 32 -15 37 -15 51 -1 14 14 13 16 -14 26 -31 11 -54 39 -67 80 -10 36 10
25 23 -12 23 -62 97 -88 86 -30 -8 45 -34 87 -89 144 -40 42 -55 67 -64 105
-7 28 -29 91 -50 140 -21 50 -42 101 -46 115 -4 14 -20 50 -36 80 -15 30 -29
70 -31 89 l-3 33 121 5 c117 4 204 22 194 40 -3 4 -12 7 -20 6 -11 -1 -10 2 3
12 13 9 17 20 12 34 -8 26 -19 26 -60 1 -31 -19 -43 -20 -232 -11 -19 1 -23 7
-23 31 0 30 1 31 44 29 39 -2 48 1 80 36 20 21 36 42 36 46 0 5 9 9 19 9 10 0
29 9 42 20 23 20 23 21 5 33 -40 26 -76 59 -76 71 0 20 -35 47 -73 56 -29 6
-42 3 -76 -19 -22 -14 -41 -33 -41 -41 0 -12 -15 -14 -86 -12 -77 3 -92 1
-133 -21 -25 -14 -80 -39 -122 -56 -136 -56 -267 -191 -303 -311 -14 -46 -14
-56 -2 -69 16 -18 22 -171 10 -269 l-6 -60 -72 -4 c-39 -3 -74 -2 -78 1 -4 4
-15 56 -25 116 -39 254 37 478 221 652 112 107 221 163 366 188 96 17 153 18
243 4z m127 -885 c0 -2 -4 -4 -9 -4 -5 0 -11 10 -14 23 -3 12 -8 33 -12 47 -4
14 3 5 14 -19 12 -24 21 -45 21 -47z m126 -253 c-4 -6 -11 -11 -15 -11 -11 0
-21 37 -13 45 9 9 35 -22 28 -34z m40 -28 c-4 -10 -2 -13 8 -10 8 3 20 -1 27
-9 17 -20 3 -30 -18 -13 -17 13 -17 13 -3 -6 8 -11 20 -23 25 -27 12 -9 2 -10
-20 -2 -21 8 -46 59 -39 78 3 9 10 13 16 10 5 -3 7 -13 4 -21z"/>
<path d="M330 1570 c-11 -21 -4 -25 24 -14 9 3 16 12 16 20 0 21 -28 17 -40
-6z"/>
<path d="M410 1577 c0 -15 -47 -62 -70 -70 -12 -4 -12 -6 2 -6 20 -1 78 55 78
75 0 8 -2 14 -5 14 -3 0 -5 -6 -5 -13z"/>
<path d="M2571 1578 c-1 -24 57 -78 82 -77 21 1 21 2 2 6 -39 9 -38 22 1 18
35 -4 36 -4 8 4 -42 11 -54 19 -64 45 -8 20 -9 20 -10 1 -1 -20 -1 -20 -10 0
-7 16 -9 17 -9 3z"/>
<path d="M2620 1576 c0 -15 37 -32 47 -22 9 8 -17 36 -33 36 -8 0 -14 -6 -14
-14z"/>
<path d="M618 888 c-61 -44 -61 -45 -21 -95 13 -16 22 -20 33 -13 12 7 12 12
2 22 -25 25 -20 30 77 95 5 4 -20 33 -28 32 -3 0 -32 -19 -63 -41z"/>
<path d="M2286 899 c-19 -15 -26 -29 -24 -47 5 -38 31 -50 67 -29 16 9 34 17
40 17 21 0 11 -20 -14 -30 -30 -11 -33 -40 -5 -40 33 0 62 37 58 73 -4 38 -34
48 -70 23 -28 -20 -38 -20 -38 -2 0 7 9 16 20 19 22 6 28 37 6 37 -7 0 -25
-10 -40 -21z"/>
<path d="M737 741 c-57 -32 -65 -40 -53 -50 8 -7 24 -10 34 -7 21 7 58 -26 47
-43 -3 -6 1 -18 9 -27 15 -14 17 -14 23 3 3 10 17 42 30 72 22 51 22 55 7 73
-10 10 -20 18 -23 17 -3 0 -37 -18 -74 -38z m59 -27 c-3 -9 -6 -18 -6 -20 0
-2 -7 -4 -15 -4 -18 0 -19 12 -3 28 17 17 31 15 24 -4z"/>
<path d="M2140 750 c-12 -8 -6 -19 35 -62 28 -29 51 -54 52 -56 1 -2 18 8 37
23 29 22 34 30 25 42 -10 11 -15 11 -31 -3 -17 -17 -20 -15 -54 24 -38 45 -41
47 -64 32z"/>
<path d="M2058 679 c-16 -9 -16 -13 -4 -37 7 -15 17 -38 21 -52 6 -20 1 -17
-31 18 -28 32 -44 42 -56 37 -22 -9 -22 -25 -3 -72 17 -41 12 -57 -9 -27 -41
58 -50 65 -68 52 -15 -12 -12 -19 36 -71 49 -54 55 -58 75 -45 25 15 25 18 6
65 -8 20 -13 38 -11 41 6 5 55 -49 56 -60 0 -12 14 -10 34 5 16 12 16 17 1 85
-17 75 -19 78 -47 61z"/>
<path d="M916 604 c-17 -73 -17 -76 0 -89 21 -16 34 -19 34 -7 1 4 12 21 26
37 l26 30 -5 -30 c-3 -16 -9 -38 -12 -47 -4 -11 1 -20 16 -28 20 -11 26 -7 74
46 46 52 50 60 36 71 -23 18 -24 17 -51 -27 -14 -22 -28 -40 -32 -40 -10 0
-10 1 7 51 15 41 14 45 -2 56 -15 12 -22 8 -55 -29 -43 -50 -45 -47 -18 17 18
43 19 46 2 52 -9 3 -20 7 -23 9 -3 2 -14 -31 -23 -72z"/>
<path d="M1184 532 c-3 -15 -12 -48 -19 -74 -11 -40 -10 -48 2 -52 26 -10 30
-7 38 37 l7 42 17 -50 c12 -35 24 -51 38 -53 16 -2 23 8 40 67 21 74 21 81 -8
81 -12 0 -19 -11 -24 -40 -8 -49 -19 -45 -34 14 -13 54 -47 71 -57 28z"/>
<path d="M1725 525 c-30 -30 -32 -64 -4 -99 41 -52 139 -18 139 49 0 36 -42
75 -80 75 -19 0 -40 -9 -55 -25z m85 -36 c17 -30 5 -49 -29 -49 -21 0 -32 6
-36 20 -14 44 44 69 65 29z"/>
<path d="M1500 435 l0 -75 46 0 c25 0 54 5 65 10 19 11 26 40 12 54 -5 4 -8
24 -8 44 l0 37 -57 3 -58 3 0 -76z m80 30 c0 -8 -9 -15 -20 -15 -11 0 -20 7
-20 15 0 8 9 15 20 15 11 0 20 -7 20 -15z m8 -52 c5 -17 -26 -29 -40 -15 -6 6
-7 15 -3 22 9 14 37 9 43 -7z"/>
</g>
</svg>
