<svg width="143" height="40" viewBox="0 0 143 40" fill="none" xmlns="http://www.w3.org/2000/svg">
<path d="M0 0H40V40H0V0Z" fill="black"/>
<path d="M31.4832 25.0139C32.1207 24.3618 32.6042 23.6115 32.9347 22.7659C33.2663 21.9204 33.4315 21.0145 33.4295 20.0605C33.4295 19.1065 33.255 18.2005 32.9072 17.355C32.5583 16.5095 32.0595 15.752 31.4108 15.0999C30.7487 14.4458 29.9827 13.933 29.1115 13.5891C28.2404 13.2441 27.3111 13.0435 26.3267 13.0435H21.2192V22.6073H24.2621V16.1041H26.3267C26.9153 16.1041 27.457 16.2403 27.9496 16.4337C28.4423 16.6272 28.8677 16.9353 29.2288 17.2803C29.5899 17.6242 29.8684 18.0347 30.0683 18.5127C30.2673 18.9898 30.3652 19.5046 30.3652 20.0595C30.3652 20.6399 30.2662 21.1691 30.0683 21.6594C29.8694 22.1477 29.593 22.5571 29.238 22.9082C28.8851 23.2583 28.4576 23.5091 27.9588 23.7005C27.459 23.895 26.9153 23.9462 26.3267 23.9462H19.6983V13.0435H16.4657V17.8249H9.99942V13.0435H6.95654V27.0059H9.99942V20.8855H16.4646V27.0059H26.3267C27.3366 27.0059 28.2975 26.8748 29.2115 26.5002C29.645 26.318 30.053 26.1562 30.4386 25.9024C30.8232 25.6485 31.17 25.3537 31.4832 25.0139Z" fill="#FAE86E"/>
<path d="M54.889 39.797H50.3162V24.9476H55.0916C56.529 24.9476 57.759 25.2449 58.7817 25.8395C59.8043 26.4292 60.5881 27.2775 61.1332 28.3845C61.6782 29.4866 61.9508 30.8062 61.9508 32.3433C61.9508 33.8901 61.6758 35.2218 61.1259 36.3384C60.576 37.4502 59.7753 38.3058 58.7238 38.9052C57.6722 39.4997 56.394 39.797 54.889 39.797ZM52.1106 38.2018H54.7732C55.9984 38.2018 57.0138 37.965 57.8193 37.4913C58.6249 37.0176 59.2254 36.3433 59.621 35.4684C60.0165 34.5934 60.2143 33.5518 60.2143 32.3433C60.2143 31.1445 60.0189 30.1125 59.6282 29.2473C59.2375 28.3772 58.6538 27.7101 57.8772 27.2461C57.1006 26.7772 56.1335 26.5428 54.9758 26.5428H52.1106V38.2018Z" fill="black"/>
<path d="M66.7551 24.9476V39.797H64.9607V24.9476H66.7551Z" fill="black"/>
<path d="M80.4826 29.5881C80.3234 29.0999 80.1136 28.6624 79.8531 28.2757C79.5975 27.8842 79.2912 27.5506 78.9342 27.2751C78.5821 26.9996 78.1817 26.7893 77.7331 26.6443C77.2845 26.4993 76.7925 26.4268 76.2571 26.4268C75.3792 26.4268 74.5809 26.654 73.8622 27.1083C73.1434 27.5627 72.5718 28.2322 72.1474 29.1168C71.7229 30.0014 71.5107 31.0865 71.5107 32.3723C71.5107 33.6581 71.7253 34.7433 72.1546 35.6279C72.5839 36.5124 73.1651 37.1819 73.8983 37.6363C74.6315 38.0907 75.4564 38.3179 76.3729 38.3179C77.2218 38.3179 77.9695 38.1366 78.6159 37.7741C79.2671 37.4067 79.7735 36.8895 80.1353 36.2224C80.5019 35.5505 80.6852 34.7602 80.6852 33.8515L81.2351 33.9675H76.7781V32.3723H82.4217V33.9675C82.4217 35.1904 82.1612 36.2538 81.6403 37.1578C81.1242 38.0617 80.4103 38.7626 79.4986 39.2604C78.5917 39.7535 77.5498 40 76.3729 40C75.0608 40 73.908 39.6907 72.9143 39.0719C71.9255 38.4532 71.1537 37.5735 70.599 36.4327C70.0491 35.2919 69.7741 33.9385 69.7741 32.3723C69.7741 31.1977 69.9309 30.1415 70.2444 29.2038C70.5628 28.2612 71.0114 27.4588 71.5902 26.7966C72.1691 26.1343 72.854 25.6268 73.6451 25.2739C74.4362 24.9211 75.3068 24.7446 76.2571 24.7446C77.0385 24.7446 77.7669 24.8631 78.4422 25.0999C79.1223 25.3319 79.7277 25.663 80.2583 26.0933C80.7937 26.5186 81.2399 27.0286 81.5969 27.6231C81.9538 28.2129 82.1998 28.8678 82.3349 29.5881H80.4826Z" fill="black"/>
<path d="M87.2894 24.9476V39.797H85.495V24.9476H87.2894Z" fill="black"/>
<path d="M90.0768 26.5428V24.9476H101.191V26.5428H96.5309V39.797H94.7365V26.5428H90.0768Z" fill="black"/>
<path d="M102.837 39.797H100.955L106.396 24.9476H108.249L113.69 39.797H111.809L107.38 27.2969H107.265L102.837 39.797ZM103.531 33.9965H111.114V35.5916H103.531V33.9965Z" fill="black"/>
<path d="M115.998 39.797V24.9476H117.792V38.2018H124.68V39.797H115.998Z" fill="black"/>
<path d="M50.3162 15.0524V0.203019H53.0005V6.48934H59.867V0.203019H62.5586V15.0524H59.867V8.74429H53.0005V15.0524H50.3162Z" fill="black"/>
<path d="M78.719 7.62769C78.719 9.22767 78.4199 10.598 77.8218 11.7388C77.2285 12.8748 76.4181 13.7448 75.3907 14.3491C74.368 14.9533 73.208 15.2554 71.9104 15.2554C70.6128 15.2554 69.4503 14.9533 68.4229 14.3491C67.4003 13.74 66.5899 12.8675 65.9918 11.7316C65.3985 10.5908 65.1018 9.22284 65.1018 7.62769C65.1018 6.02771 65.3985 4.65976 65.9918 3.52382C66.5899 2.38305 67.4003 1.51055 68.4229 0.906332C69.4503 0.302111 70.6128 0 71.9104 0C73.208 0 74.368 0.302111 75.3907 0.906332C76.4181 1.51055 77.2285 2.38305 77.8218 3.52382C78.4199 4.65976 78.719 6.02771 78.719 7.62769ZM76.0201 7.62769C76.0201 6.50142 75.8441 5.55159 75.492 4.77818C75.1447 3.99995 74.6623 3.41264 74.0449 3.01627C73.4274 2.61507 72.7159 2.41447 71.9104 2.41447C71.1049 2.41447 70.3934 2.61507 69.7759 3.01627C69.1585 3.41264 68.6737 3.99995 68.3216 4.77818C67.9743 5.55159 67.8007 6.50142 67.8007 7.62769C67.8007 8.75396 67.9743 9.70621 68.3216 10.4845C68.6737 11.2579 69.1585 11.8452 69.7759 12.2464C70.3934 12.6427 71.1049 12.8409 71.9104 12.8409C72.7159 12.8409 73.4274 12.6427 74.0449 12.2464C74.6623 11.8452 75.1447 11.2579 75.492 10.4845C75.8441 9.70621 76.0201 8.75396 76.0201 7.62769Z" fill="black"/>
<path d="M94.4977 7.62769C94.4977 9.22767 94.1986 10.598 93.6005 11.7388C93.0072 12.8748 92.1968 13.7448 91.1694 14.3491C90.1468 14.9533 88.9867 15.2554 87.6891 15.2554C86.3916 15.2554 85.2291 14.9533 84.2016 14.3491C83.179 13.74 82.3687 12.8675 81.7705 11.7316C81.1772 10.5908 80.8806 9.22284 80.8806 7.62769C80.8806 6.02771 81.1772 4.65976 81.7705 3.52382C82.3687 2.38305 83.179 1.51055 84.2016 0.906332C85.2291 0.302111 86.3916 0 87.6891 0C88.9867 0 90.1468 0.302111 91.1694 0.906332C92.1968 1.51055 93.0072 2.38305 93.6005 3.52382C94.1986 4.65976 94.4977 6.02771 94.4977 7.62769ZM91.7989 7.62769C91.7989 6.50142 91.6228 5.55159 91.2707 4.77818C90.9234 3.99995 90.441 3.41264 89.8236 3.01627C89.2062 2.61507 88.4947 2.41447 87.6891 2.41447C86.8836 2.41447 86.1721 2.61507 85.5547 3.01627C84.9372 3.41264 84.4525 3.99995 84.1003 4.77818C83.753 5.55159 83.5794 6.50142 83.5794 7.62769C83.5794 8.75396 83.753 9.70621 84.1003 10.4845C84.4525 11.2579 84.9372 11.8452 85.5547 12.2464C86.1721 12.6427 86.8836 12.8409 87.6891 12.8409C88.4947 12.8409 89.2062 12.6427 89.8236 12.2464C90.441 11.8452 90.9234 11.2579 91.2707 10.4845C91.6228 9.70621 91.7989 8.75396 91.7989 7.62769Z" fill="black"/>
<path d="M97.0355 0.203019H100.32L104.72 10.963H104.893L109.292 0.203019H112.577V15.0524H110.001V4.85069H109.864L105.769 15.0089H103.844L99.7488 4.82894H99.6114V15.0524H97.0355V0.203019Z" fill="black"/>
<path d="M117.403 15.0524H114.538L119.755 0.203019H123.069L128.293 15.0524H125.427L121.47 3.2483H121.354L117.403 15.0524ZM117.497 9.23009H125.312V11.3908H117.497V9.23009Z" fill="black"/>
<path d="M142.422 0.203019V15.0524H140.034L133.052 4.9377H132.929V15.0524H130.245V0.203019H132.647L139.622 10.3249H139.752V0.203019H142.422Z" fill="black"/>
</svg>
