<svg width="29" height="30" viewBox="0 0 29 30" fill="none" xmlns="http://www.w3.org/2000/svg">
<path d="M14.7712 28.6318C22.3313 28.6318 28.4576 22.5055 28.4576 14.9454C28.4576 7.38522 22.3313 1.25891 14.7712 1.25891C7.21103 1.25891 1.08472 7.38522 1.08472 14.9454C1.08472 22.5055 7.21103 28.6318 14.7712 28.6318Z" stroke="black" stroke-miterlimit="10"/>
<path d="M20.3979 12.6514C20.3979 12.1336 20.2674 11.7452 20.0717 11.2274C19.9412 10.839 19.6802 10.5153 19.3539 10.2564C19.0277 9.99747 18.7667 9.73855 18.3753 9.54436C17.9838 9.35016 17.4618 9.2207 16.9398 9.2207C16.3526 9.2207 16.1569 9.2207 14.7215 9.2207C13.2208 9.2207 13.0903 9.2207 12.5031 9.2207C11.9811 9.2207 11.5896 9.35016 11.0677 9.54436C10.6762 9.67382 10.35 9.93274 10.089 10.2564C9.76276 10.5801 9.56701 10.839 9.37127 11.2274C9.17554 11.6157 9.04504 12.1336 9.04504 12.6514C9.04504 13.234 9.04504 13.4282 9.04504 14.8523C9.04504 16.2764 9.04504 16.4706 9.04504 17.0531C9.04504 17.571 9.17554 17.9594 9.37127 18.4772C9.69751 19.254 10.2847 19.9013 11.0677 20.1602C11.4592 20.3544 11.9811 20.4839 12.5031 20.4839C13.0903 20.4839 13.286 20.4839 14.7215 20.4839C16.1569 20.4839 16.3526 20.4839 16.9398 20.4839C17.4618 20.4839 17.8533 20.3544 18.3753 20.1602C19.1582 19.8366 19.8107 19.254 20.0717 18.4772C20.2674 18.0888 20.3979 17.571 20.3979 17.0531C20.3979 16.4706 20.3979 16.2764 20.3979 14.8523C20.3979 13.3635 20.3979 13.234 20.3979 12.6514ZM18.9625 14.8523C18.9625 16.3411 18.9625 16.4706 18.9625 17.0531C18.9625 17.3768 18.832 17.6357 18.7667 17.9594C18.571 18.3478 18.2448 18.6714 17.8533 18.8656C17.5271 18.9951 17.2661 19.0598 16.9398 19.0598C16.3526 19.0598 16.2221 19.0598 14.7215 19.0598C13.2208 19.0598 13.0903 19.0598 12.5031 19.0598C12.1769 19.0598 11.9159 18.9303 11.5897 18.8656C11.1982 18.6714 10.8719 18.3478 10.6762 17.9594C10.5457 17.6357 10.4805 17.3768 10.4805 17.0531C10.4805 16.4706 10.4805 16.3411 10.4805 14.8523C10.4805 13.4282 10.4805 13.234 10.4805 12.6514C10.4805 12.3278 10.611 12.0689 10.6762 11.7452C10.8719 11.3568 11.1982 11.0332 11.5897 10.839C11.9159 10.7095 12.1769 10.6448 12.5031 10.6448C13.0251 10.6448 13.2208 10.6448 14.7215 10.6448C16.1569 10.6448 16.3526 10.6448 16.9398 10.6448C17.2661 10.6448 17.5271 10.7742 17.8533 10.839C18.2448 11.0332 18.571 11.3568 18.7667 11.7452C18.8972 12.0689 18.9625 12.3278 18.9625 12.6514C18.9625 13.234 18.9625 13.4282 18.9625 14.8523Z" fill="black"/>
<path d="M14.7865 12.4573C13.4816 12.4573 12.3724 13.5577 12.3724 14.8523C12.3724 16.1469 13.4816 17.2474 14.7865 17.2474C16.0915 17.2474 17.2007 16.1469 17.2007 14.8523C17.2007 13.5577 16.0915 12.4573 14.7865 12.4573ZM14.7865 16.0175C14.1993 16.0175 13.6121 15.4996 13.6121 14.8523C13.6121 14.205 14.1341 13.6872 14.7865 13.6872C15.5043 13.6872 15.961 14.205 15.961 14.8523C15.961 15.4349 15.3738 16.0175 14.7865 16.0175Z" fill="black"/>
<path d="M17.592 11.3567C17.2006 11.3567 16.8091 11.6803 16.8091 12.1335C16.8091 12.5218 17.1353 12.9102 17.592 12.9102C18.114 12.9102 18.375 12.5866 18.375 12.1335C18.2445 11.6156 17.9835 11.3567 17.592 11.3567Z" fill="black"/>
</svg>
