<svg width="29" height="30" viewBox="0 0 29 30" fill="none" xmlns="http://www.w3.org/2000/svg">
<path d="M14.6864 1.19421C7.12631 1.19421 1 7.32052 1 14.8807C1 22.4408 7.12631 28.5671 14.6864 28.5671C22.2466 28.5671 28.3729 22.3756 28.3729 14.8807C28.3729 7.3857 22.1814 1.19421 14.6864 1.19421Z" stroke="black" stroke-miterlimit="10"/>
<path d="M19.5951 12.3282C19.5951 12.3929 19.5951 12.5224 19.5951 12.7166C19.5951 16.0178 17.0505 19.837 12.418 19.837C10.9173 19.837 9.67767 19.3839 8.56848 18.7365C8.76422 18.7365 8.95996 18.7365 9.22094 18.7365C10.3954 18.7365 11.5046 18.3482 12.3528 17.6361C11.2436 17.6361 10.3301 16.9241 9.93865 15.8884C10.1344 15.8884 10.1996 15.8884 10.3954 15.8884C10.6564 15.8884 10.8521 15.8884 11.0478 15.8237C9.8734 15.6295 9.0252 14.529 9.0252 13.3639C9.41668 13.5581 9.74291 13.6228 10.1344 13.6228C9.48193 13.1697 9.0252 12.4576 9.0252 11.5514C9.0252 11.0983 9.09045 10.6452 9.41668 10.2568C10.5911 11.8103 12.5485 12.7813 14.5711 12.9108C14.5711 12.7166 14.5711 12.5224 14.5711 12.3929C14.5711 11.0336 15.6803 9.86841 17.1157 9.86841C17.8334 9.86841 18.4859 10.1273 18.9426 10.7099C19.4646 10.6452 20.0518 10.3215 20.5085 10.0626C20.3128 10.5804 19.9866 11.163 19.3993 11.422C19.9213 11.3572 20.378 11.2278 20.9 11.0336C20.5085 11.4867 20.0518 12.0045 19.5951 12.3282Z" fill="black"/>
</svg>
