<svg width="29" height="30" viewBox="0 0 29 30" fill="none" xmlns="http://www.w3.org/2000/svg">
<path d="M14.3135 1.12939C6.75339 1.12939 0.627075 7.25571 0.627075 14.8158C0.627075 22.376 6.75339 28.5023 14.3135 28.5023C21.8085 28.5023 28 22.3108 28 14.8158C28 7.32088 21.8085 1.12939 14.3135 1.12939Z" stroke="black" stroke-miterlimit="10"/>
<path d="M20.0048 17.5067C19.8743 18.0892 19.4175 18.6071 18.6998 18.6718C17.1992 18.8013 15.7637 18.866 14.2631 18.866C12.7624 18.866 11.327 18.866 9.82634 18.6718C9.23912 18.5423 8.71715 18.154 8.52141 17.5067C8.32568 16.6004 8.32568 15.6942 8.32568 14.7232C8.32568 13.817 8.32568 12.846 8.52141 11.9398C8.65191 11.3572 9.10863 10.8394 9.82634 10.7746C11.327 10.6452 12.7624 10.5804 14.2631 10.5804C15.7637 10.5804 17.1992 10.5804 18.6998 10.7746C19.287 10.9041 19.809 11.2925 20.0048 11.9398C20.2005 12.846 20.2005 13.7523 20.2005 14.7232C20.2657 15.6295 20.2005 16.6004 20.0048 17.5067Z" fill="black"/>
<path d="M13.3499 16.2118L16.4817 14.3994L13.3499 12.5869V16.2118Z" fill="white"/>
</svg>
